<svg version="1.1" viewBox="-178.3 -167.1 1e3 700" xmlns="http://www.w3.org/2000/svg"><path d="m79.85 323.1c4 0 7.3 1.4 10.1 4.2s4.2 6.2 4.2 10.1v49.6h-50.7c-4 0-7.3-1.4-10.1-4.2s-4.2-6.2-4.2-10.1v-23.6h53.1v-11.7c0-0.7-0.2-1.2-0.7-1.7s-1-0.7-1.7-0.7h-50.7v-11.9zm2.4 52v-14.1h-41.2v11.7c0 0.7 0.2 1.2 0.7 1.7s1 0.7 1.7 0.7zm114.7-52h12.7l-24 63.9h-9.7l-21.5-47.5-20.3 47.5-0.2-0.1 0.1 0.1h-9.6l-25.1-63.9h12.6l17.3 42.4 18.4-42.4h13.6l19.5 42.4zm67.2 0c4 0 7.3 1.4 10.1 4.2s4.2 6.2 4.2 10.1v23.6h-53.1v11.7c0 0.7 0.2 1.2 0.7 1.7s1 0.7 1.7 0.7h50.7v11.9h-50.7c-4 0-7.3-1.4-10.1-4.2s-4.2-6.2-4.2-10.1v-35.3c0-4 1.4-7.3 4.2-10.1s6.2-4.2 10.1-4.2zm-38.8 26h41.2v-11.7c0-0.7-0.2-1.2-0.7-1.7s-1-0.7-1.7-0.7h-36.4c-0.7 0-1.2 0.2-1.7 0.7s-0.7 1-0.7 1.7zm129-11.6v2.4h-11.9v-2.4c0-0.7-0.2-1.2-0.7-1.7s-1-0.7-1.7-0.7h-36.4c-0.7 0-1.2 0.2-1.7 0.7s-0.7 1-0.7 1.7v9.3c0 0.7 0.2 1.2 0.7 1.7s1 0.7 1.7 0.7h36.4c4 0 7.3 1.4 10.1 4.2s4.2 6.2 4.2 10.1v9.3c0 4-1.4 7.3-4.2 10.1s-6.2 4.2-10.1 4.2h-36.4c-4 0-7.3-1.4-10.1-4.2s-4.2-6.2-4.2-10.1v-2.4h11.9v2.4c0 0.7 0.2 1.2 0.7 1.7s1 0.7 1.7 0.7h36.4c0.7 0 1.2-0.2 1.7-0.7s0.7-1 0.7-1.7v-9.3c0-0.7-0.2-1.2-0.7-1.7s-1-0.7-1.7-0.7h-36.4c-4 0-7.3-1.4-10.1-4.2s-4.2-6.2-4.2-10.1v-9.3c0-4 1.4-7.3 4.2-10.1s6.2-4.2 10.1-4.2h36.4c4 0 7.3 1.4 10.1 4.2 2.8 2.7 4.2 6.1 4.2 10.1zm25.2-14.4h36.4c4 0 7.3 1.4 10.1 4.2s4.2 6.2 4.2 10.1v35.3c0 4-1.4 7.3-4.2 10.1s-6.2 4.2-10.1 4.2h-36.4c-4 0-7.3-1.4-10.1-4.2s-4.2-6.2-4.2-10.1v-35.3c0-4 1.4-7.3 4.2-10.1s6.2-4.2 10.1-4.2zm36.4 11.9h-36.4c-0.7 0-1.2 0.2-1.7 0.7s-0.7 1-0.7 1.7v35.3c0 0.7 0.2 1.2 0.7 1.7s1 0.7 1.7 0.7h36.4c0.7 0 1.2-0.2 1.7-0.7s0.7-1 0.7-1.7v-35.3c0-0.7-0.2-1.2-0.7-1.7-0.5-0.4-1-0.7-1.7-0.7zm107.5-11.9c4 0 7.3 1.4 10.1 4.2s4.2 6.2 4.2 10.1v49.6h-11.8v-49.6c0-0.7-0.2-1.2-0.7-1.7s-1.1-0.7-1.8-0.7h-25.2c-0.7 0-1.2 0.2-1.7 0.7s-0.7 1-0.7 1.7v49.6h-11.9v-49.6c0-0.7-0.2-1.2-0.7-1.7s-1-0.7-1.7-0.7h-25.3c-0.7 0-1.2 0.2-1.7 0.7s-0.7 1-0.7 1.7v49.6h-11.9v-63.9zm76.5 0c4 0 7.3 1.4 10.1 4.2s4.2 6.2 4.2 10.1v23.6h-53.1v11.7c0 0.7 0.2 1.2 0.7 1.7s1 0.7 1.7 0.7h50.7v11.9h-50.7c-4 0-7.3-1.4-10.1-4.2s-4.2-6.2-4.2-10.1v-35.3c0-4 1.4-7.3 4.2-10.1s6.2-4.2 10.1-4.2zm-38.8 26h41.2v-11.7c0-0.7-0.2-1.2-0.7-1.7s-1-0.7-1.7-0.7h-36.4c-0.7 0-1.2 0.2-1.7 0.7s-0.7 1-0.7 1.7z" fill="#494368"/><g><path d="M614.2 91l-150-137.6-21.1 23L568.1 91H75.4l125-114.7-21.1-23L29.3 91h-.1v90.7c0 41 39.5 74.4 88 74.4h92.5c48.5 0 88-33.4 88-74.4v-59.6h48v59.6c0 41 39.5 74.4 88 74.4h92.5c48.5 0 88-33.4 88-74.4V91z" fill="#e3000f"/><text x="26.910414" y="305.57971" fill="#494368" font-family="sans-serif" font-size="14.667px" letter-spacing="0px" word-spacing="0px" style="line-height:1.25" xml:space="preserve"><tspan x="26.910414" y="305.57971" fill="#494368" font-family="'DejaVu Sans'" font-size="26.667px" font-weight="bold" style="font-variant-caps:normal;font-variant-east-asian:normal;font-variant-ligatures:normal;font-variant-numeric:normal">inofficial</tspan></text><text x="211.16875" y="473.33481" fill="#494368" font-family="sans-serif" font-size="14.667px" letter-spacing="0px" word-spacing="0px" style="line-height:1.25" xml:space="preserve"><tspan x="211.16875" y="473.33481" fill="#494368" font-family="'DejaVu Sans'" font-size="96px" font-weight="bold" style="font-variant-caps:normal;font-variant-east-asian:normal;font-variant-ligatures:normal;font-variant-numeric:normal">SPD</tspan></text></g></svg>
